# xmcd
#
# Track frame offsets:
#       150
#       20052
#       35407
#       55901
#       73228
#       91709
#       107044
#       122875
#       139768
#       153244
#
# Disc length: 2206 seconds
#
# Revision: 0
# Processed by: cddbd v1.5.1PL0 Copyright (c) Steve Scherf et al.
# Submitted via: CD-DA_X-Tractor v0.23
#
DISCID=86089c0a
DTITLE=Bethanie - Small Black Feather
DYEAR=2002
DGENRE=folk
TTITLE0=It Was Raining
TTITLE1=Maybe I'll Be Gone
TTITLE2=Small Black Feather
TTITLE3=Hey There
TTITLE4=That Part
TTITLE5=Everybody's Lucky
TTITLE6=Never Say
TTITLE7=Can't Talk
TTITLE8=Before I settle Here and Die
TTITLE9=Water Run Deep and Wide
EXTD=
EXTT0=
EXTT1=
EXTT2=
EXTT3=
EXTT4=
EXTT5=
EXTT6=
EXTT7=
EXTT8=
EXTT9=
PLAYORDER=
